<svg width="128" height="128" viewBox="0 0 128 128" fill="none" xmlns="http://www.w3.org/2000/svg">
<path d="M82.6667 64.0002C82.6667 74.3095 74.3094 82.6668 64 82.6668C53.6907 82.6668 45.3334 74.3095 45.3334 64.0002C45.3334 53.6908 53.6907 45.3335 64 45.3335C74.3094 45.3335 82.6667 53.6908 82.6667 64.0002Z" stroke="#5375E0" stroke-width="6"/>
<path d="M116.331 74.5141C116.815 74.4908 117.057 74.4791 117.195 74.3343C117.333 74.1894 117.333 73.9563 117.333 73.4901V54.5108C117.333 54.0445 117.333 53.8114 117.195 53.6665C117.057 53.5217 116.815 53.51 116.331 53.4867C102.005 52.7968 92.7916 37.4038 99.4109 24.7141C99.6384 24.2779 99.7522 24.0598 99.6951 23.8662C99.638 23.6725 99.4326 23.5559 99.0219 23.3227L82.2861 13.8206C81.8859 13.5934 81.6858 13.4798 81.4932 13.5266C81.3006 13.5735 81.1699 13.774 80.9087 14.1751C72.9754 26.3547 55.033 26.3542 47.0997 14.1746C46.8384 13.7735 46.7078 13.573 46.5152 13.5261C46.3226 13.4793 46.1225 13.5929 45.7222 13.8201L28.9864 23.3222C28.5757 23.5554 28.3704 23.672 28.3133 23.8656C28.2562 24.0593 28.3699 24.2774 28.5974 24.7136C35.2165 37.4035 25.9955 52.7968 11.6694 53.4867C11.1849 53.51 10.9427 53.5217 10.8047 53.6665C10.6666 53.8114 10.6666 54.0445 10.6666 54.5108V73.4901C10.6666 73.9563 10.6666 74.1894 10.8047 74.3343C10.9427 74.4791 11.1849 74.4908 11.6694 74.5141C25.9949 75.2041 35.2083 90.597 28.589 103.287C28.3615 103.723 28.2477 103.941 28.3048 104.135C28.362 104.328 28.5673 104.445 28.978 104.678L45.7138 114.18C46.114 114.407 46.3141 114.521 46.5068 114.474C46.6994 114.427 46.83 114.227 47.0912 113.826C55.0283 101.64 72.98 101.639 80.9171 113.825C81.1784 114.226 81.309 114.427 81.5016 114.474C81.6942 114.521 81.8943 114.407 82.2946 114.18L99.0304 104.678C99.4411 104.444 99.6464 104.328 99.7035 104.134C99.7606 103.94 99.6469 103.722 99.4193 103.286C92.7999 90.5968 102.006 75.2041 116.331 74.5141Z" stroke="#5375E0" stroke-width="6" stroke-linecap="round"/>
</svg>
