<svg width="128" height="128" viewBox="0 0 128 128" fill="none" xmlns="http://www.w3.org/2000/svg">
<path d="M74.8149 71.3328C78.2716 67.8761 80 66.1477 80 64C80 61.8523 78.2716 60.1239 74.8149 56.6672L71.3328 53.1851C67.8761 49.7284 66.1477 48 64 48C61.8523 48 60.1239 49.7284 56.6672 53.1851L53.1851 56.6672C49.7284 60.1239 48 61.8523 48 64C48 66.1477 49.7284 67.8761 53.1851 71.3328L56.6672 74.8149C60.1239 78.2716 61.8523 80 64 80C66.1477 80 67.8761 78.2716 71.3328 74.8149L74.8149 71.3328Z" stroke="#5375E0" stroke-width="6"/>
<path d="M42.6666 21.3332C42.6666 12.5083 44.5084 10.6665 53.3333 10.6665H74.6666C83.4915 10.6665 85.3333 12.5083 85.3333 21.3332C85.3333 30.1581 83.4915 31.9998 74.6666 31.9998H53.3333C44.5084 31.9998 42.6666 30.1581 42.6666 21.3332Z" stroke="#5375E0" stroke-width="6"/>
<path d="M42.6666 106.667C42.6666 97.8418 44.5084 96 53.3333 96H74.6666C83.4915 96 85.3333 97.8418 85.3333 106.667C85.3333 115.492 83.4915 117.333 74.6666 117.333H53.3333C44.5084 117.333 42.6666 115.492 42.6666 106.667Z" stroke="#5375E0" stroke-width="6"/>
<path d="M45.3334 64.0002H42.6667C32.6101 64.0002 27.5818 64.0002 24.4576 60.876C21.3334 57.7518 21.3334 52.7235 21.3334 42.6668C21.3334 32.6102 21.3334 27.5819 24.4576 24.4577C27.5818 21.3335 32.6101 21.3335 42.6667 21.3335" stroke="#5375E0" stroke-width="6" stroke-linecap="round" stroke-linejoin="round"/>
<path d="M82.6666 64H85.3333C95.3899 64 100.418 64 103.542 67.1242C106.667 70.2484 106.667 75.2767 106.667 85.3333C106.667 95.39 106.667 100.418 103.542 103.542C100.418 106.667 95.3899 106.667 85.3333 106.667" stroke="#5375E0" stroke-width="6" stroke-linecap="round" stroke-linejoin="round"/>
<path d="M64 45.3333V32M64 82.6667V96" stroke="#5375E0" stroke-width="6" stroke-linecap="round" stroke-linejoin="round"/>
</svg>
