<svg width="128" height="128" viewBox="0 0 128 128" fill="none" xmlns="http://www.w3.org/2000/svg">
<path d="M72 69.3333L90.6666 48M74.6666 80C74.6666 85.891 69.891 90.6667 64 90.6667C58.1089 90.6667 53.3333 85.891 53.3333 80C53.3333 74.109 58.1089 69.3333 64 69.3333C69.891 69.3333 74.6666 74.109 74.6666 80Z" stroke="#5375E0" stroke-width="6" stroke-linecap="round"/>
<path d="M32 64C32 46.3269 46.3269 32 64 32C69.8286 32 75.2932 33.5583 80 36.281" stroke="#5375E0" stroke-width="6" stroke-linecap="round"/>
<path d="M13.3337 64.0002C13.3337 40.1157 13.3337 28.1734 20.7536 20.7535C28.1736 13.3335 40.1159 13.3335 64.0003 13.3335C87.8848 13.3335 99.8271 13.3335 107.247 20.7535C114.667 28.1734 114.667 40.1157 114.667 64.0002C114.667 87.8847 114.667 99.8269 107.247 107.247C99.8271 114.667 87.8848 114.667 64.0003 114.667C40.1159 114.667 28.1736 114.667 20.7536 107.247C13.3337 99.8269 13.3337 87.8847 13.3337 64.0002Z" stroke="#5375E0" stroke-width="6"/>
</svg>
