<svg width="48" height="48" viewBox="0 0 48 48" fill="none" xmlns="http://www.w3.org/2000/svg">
<path d="M10 11.931H16.3M24 11.931H20.5M16.3 11.931H20.5M16.3 11.931V10M20.5 11.931C19.7615 14.5719 18.2151 17.0682 16.45 19.2621M11.95 24C13.3769 22.6879 14.9884 21.0787 16.45 19.2621M16.45 19.2621C15.55 18.2069 14.29 16.4997 13.93 15.7273M16.45 19.2621L19.15 22.069" stroke="#8034D8" stroke-width="2.5" stroke-linecap="round" stroke-linejoin="round"/>
<path d="M14.0446 33.9554C14.1535 37.3957 14.5279 39.5057 15.8159 41.0751C16.1484 41.4802 16.5198 41.8516 16.9249 42.1841C19.1376 44 22.425 44 29 44C35.575 44 38.8624 44 41.0751 42.1841C41.4802 41.8516 41.8516 41.4802 42.1841 41.0751C44 38.8624 44 35.575 44 29C44 22.425 44 19.1376 42.1841 16.9249C41.8516 16.5198 41.4802 16.1484 41.0751 15.8159C39.5125 14.5335 37.4139 14.1567 34 14.0461M14.0446 33.9554C10.6043 33.8465 8.49426 33.4721 6.92485 32.1841C6.51978 31.8516 6.14835 31.4802 5.81592 31.0751C4 28.8624 4 25.575 4 19C4 12.425 4 9.13755 5.81592 6.92485C6.14835 6.51978 6.51978 6.14835 6.92485 5.81592C9.13755 4 12.425 4 19 4C25.575 4 28.8624 4 31.0751 5.81592C31.4802 6.14835 31.8516 6.51978 32.1841 6.92485C33.4721 8.49426 33.8465 10.6043 33.9554 14.0446C33.9554 14.0446 33.9554 14.0446 34 14.0461M14.0446 33.9554L34 14.0461" stroke="#8034D8" stroke-width="2.5"/>
<path d="M26 38L27.6667 34M36 38L34.3333 34M27.6667 34L31 26L34.3333 34M27.6667 34H34.3333" stroke="#8034D8" stroke-width="2.5" stroke-linecap="round" stroke-linejoin="round"/>
</svg>
