<svg width="128" height="128" viewBox="0 0 128 128" fill="none" xmlns="http://www.w3.org/2000/svg">
<rect x="58.6667" y="10.6665" width="58.6667" height="58.6667" rx="2.5" stroke="#5375E0" stroke-width="6" stroke-linecap="round" stroke-linejoin="round"/>
<path d="M58.6667 34.6694C47.8532 34.6889 42.1907 34.9544 38.5719 38.5731C34.6667 42.4784 34.6667 48.7638 34.6667 61.3346V66.6679C34.6667 79.2387 34.6667 85.5241 38.5719 89.4293C42.4772 93.3346 48.7626 93.3346 61.3333 93.3346H66.6667C79.2375 93.3346 85.5229 93.3346 89.4281 89.4293C93.0468 85.8106 93.3123 80.1481 93.3318 69.3346" stroke="#5375E0" stroke-width="6" stroke-linecap="round" stroke-linejoin="round"/>
<path d="M34.6667 58.6694C23.8532 58.6889 18.1907 58.9544 14.5719 62.5731C10.6667 66.4784 10.6667 72.7638 10.6667 85.3346V90.6679C10.6667 103.239 10.6667 109.524 14.5719 113.429C18.4772 117.335 24.7625 117.335 37.3333 117.335H42.6667C55.2375 117.335 61.5228 117.335 65.4281 113.429C69.0468 109.811 69.3123 104.148 69.3318 93.3346" stroke="#5375E0" stroke-width="6" stroke-linecap="round" stroke-linejoin="round"/>
</svg>
