<svg width="128" height="128" viewBox="0 0 128 128" fill="none" xmlns="http://www.w3.org/2000/svg">
<path d="M10.6665 53.3332C10.6665 33.2199 10.6665 23.1633 16.9149 16.9149C23.1633 10.6665 33.2199 10.6665 53.3332 10.6665H74.6665C94.7798 10.6665 104.836 10.6665 111.085 16.9149C117.333 23.1633 117.333 33.2199 117.333 53.3332C117.333 73.4464 117.333 83.5031 111.085 89.7515C104.836 95.9998 94.7798 95.9998 74.6665 95.9998H53.3332C33.2199 95.9998 23.1633 95.9998 16.9149 89.7515C10.6665 83.5031 10.6665 73.4464 10.6665 53.3332Z" stroke="#5375E0" stroke-width="6" stroke-linecap="round"/>
<path d="M85.3332 117.333C79.0575 113.941 71.7713 112 63.9998 112C56.2284 112 48.9422 113.941 42.6665 117.333" stroke="#5375E0" stroke-width="6" stroke-linecap="round"/>
</svg>
