<svg width="128" height="128" viewBox="0 0 128 128" fill="none" xmlns="http://www.w3.org/2000/svg">
<path d="M93.3335 93.3335L117.333 117.333" stroke="#5375E0" stroke-width="6" stroke-linecap="round" stroke-linejoin="round"/>
<path d="M106.667 58.6665C106.667 32.1568 85.1762 10.6665 58.6665 10.6665C32.1568 10.6665 10.6665 32.1568 10.6665 58.6665C10.6665 85.1762 32.1568 106.667 58.6665 106.667C85.1762 106.667 106.667 85.1762 106.667 58.6665Z" stroke="#5375E0" stroke-width="6" stroke-linejoin="round"/>
<path d="M77.3335 50.6665L82.2397 54.8953C84.3022 56.673 85.3335 57.5619 85.3335 58.6665C85.3335 59.7711 84.3022 60.66 82.2397 62.4377L77.3335 66.6665" stroke="#5375E0" stroke-width="6" stroke-linecap="round" stroke-linejoin="round"/>
<path d="M40 50.6665L35.0938 54.8953C33.0313 56.673 32 57.5619 32 58.6665C32 59.7711 33.0313 60.66 35.0938 62.4377L40 66.6665" stroke="#5375E0" stroke-width="6" stroke-linecap="round" stroke-linejoin="round"/>
<path d="M64.0002 45.3335L53.3335 72.0002" stroke="#5375E0" stroke-width="6" stroke-linecap="round" stroke-linejoin="round"/>
</svg>
