<svg width="128" height="128" viewBox="0 0 128 128" fill="none" xmlns="http://www.w3.org/2000/svg">
<path d="M90.6667 64.0002C90.6667 78.7278 78.7276 90.6668 64 90.6668C49.2724 90.6668 37.3333 78.7278 37.3333 64.0002C37.3333 49.2726 49.2724 37.3335 64 37.3335" stroke="#5375E0" stroke-width="6" stroke-linecap="round"/>
<path d="M74.6667 11.7339C71.2202 11.0342 67.653 10.667 64 10.667C34.5448 10.667 10.6667 34.5451 10.6667 64.0003C10.6667 93.4555 34.5448 117.334 64 117.334C93.4552 117.334 117.333 93.4555 117.333 64.0003C117.333 60.3474 116.966 56.7802 116.266 53.3337" stroke="#5375E0" stroke-width="6" stroke-linecap="round"/>
<path d="M61.8787 61.879C60.7071 63.0506 60.7071 64.9501 61.8787 66.1216C63.0503 67.2932 64.9497 67.2932 66.1213 66.1216L61.8787 61.879ZM105.018 22.9823L102.115 23.7397C102.389 24.7904 103.21 25.611 104.261 25.8851L105.018 22.9823ZM102.264 12.4274L99.3613 13.1848V13.1848L102.264 12.4274ZM97.5895 11.6806L99.7109 13.802V13.802L97.5895 11.6806ZM91.4595 17.8107L89.3382 15.6894V15.6894L91.4595 17.8107ZM86.8167 32.8072L83.9139 33.5646L86.8167 32.8072ZM115.573 25.7362L114.816 28.639L115.573 25.7362ZM116.32 30.4108L114.198 28.2895L116.32 30.4108ZM110.19 36.5408L112.311 38.6622L110.19 36.5408ZM95.1931 41.1836L94.4357 44.0864L95.1931 41.1836ZM88.55 39.4503L86.4287 37.329L61.8787 61.879L64 64.0003L66.1213 66.1216L90.6713 41.5716L88.55 39.4503ZM105.018 22.9823L107.921 22.2249L105.167 11.67L102.264 12.4274L99.3613 13.1848L102.115 23.7397L105.018 22.9823ZM97.5895 11.6806L95.4682 9.55932L89.3382 15.6894L91.4595 17.8107L93.5808 19.932L99.7109 13.802L97.5895 11.6806ZM86.8167 32.8072L83.9139 33.5646L85.6472 40.2077L88.55 39.4503L91.4528 38.6929L89.7196 32.0498L86.8167 32.8072ZM105.018 22.9823L104.261 25.8851L114.816 28.639L115.573 25.7362L116.33 22.8334L105.775 20.0795L105.018 22.9823ZM116.32 30.4108L114.198 28.2895L108.068 34.4195L110.19 36.5408L112.311 38.6622L118.441 32.5321L116.32 30.4108ZM95.1931 41.1836L95.9505 38.2808L89.3074 36.5475L88.55 39.4503L87.7926 42.3531L94.4357 44.0864L95.1931 41.1836ZM110.19 36.5408L108.068 34.4195C104.545 37.9431 99.8008 39.2853 95.9505 38.2808L95.1931 41.1836L94.4357 44.0864C100.65 45.7079 107.518 43.4554 112.311 38.6622L110.19 36.5408ZM115.573 25.7362L114.816 28.639C114.734 28.6178 114.6 28.551 114.485 28.4189C114.38 28.2971 114.346 28.1837 114.337 28.1279C114.32 28.0202 114.377 28.1106 114.198 28.2895L116.32 30.4108L118.441 32.5321C119.894 31.0787 120.566 29.0895 120.262 27.1814C119.948 25.2164 118.575 23.419 116.33 22.8334L115.573 25.7362ZM91.4595 17.8107L89.3382 15.6894C84.5449 20.4826 82.2924 27.35 83.9139 33.5646L86.8167 32.8072L89.7196 32.0498C88.715 28.1996 90.0572 23.4556 93.5808 19.932L91.4595 17.8107ZM102.264 12.4274L105.167 11.67C104.581 9.4255 102.784 8.05261 100.819 7.73871C98.9108 7.43391 96.9216 8.10595 95.4682 9.55932L97.5895 11.6806L99.7109 13.802C99.8898 13.6231 99.9801 13.6808 99.8724 13.6636C99.8167 13.6547 99.7032 13.6207 99.5814 13.5152C99.4494 13.4008 99.3825 13.2662 99.3613 13.1848L102.264 12.4274Z" fill="#5375E0"/>
</svg>
