<svg width="128" height="128" viewBox="0 0 128 128" fill="none" xmlns="http://www.w3.org/2000/svg">
<path d="M13.3335 64.0002C13.3335 40.1157 13.3335 28.1734 20.7535 20.7535C28.1734 13.3335 40.1157 13.3335 64.0002 13.3335C87.8847 13.3335 99.8269 13.3335 107.247 20.7535C114.667 28.1734 114.667 40.1157 114.667 64.0002C114.667 87.8847 114.667 99.8269 107.247 107.247C99.8269 114.667 87.8847 114.667 64.0002 114.667C40.1157 114.667 28.1734 114.667 20.7535 107.247C13.3335 99.8269 13.3335 87.8847 13.3335 64.0002Z" stroke="#5375E0" stroke-width="6"/>
<path d="M32.0002 72L40.0002 48L50.0002 72M32.0002 72L29.3335 80M32.0002 72H50.0002M50.0002 72L53.3335 80" stroke="#5375E0" stroke-width="6" stroke-linecap="round" stroke-linejoin="round"/>
<path d="M66.6665 64V51.7333C66.6665 50.7406 66.6665 50.2443 66.797 49.8426C67.0608 49.0308 67.6973 48.3943 68.5091 48.1305C68.9108 48 69.4072 48 70.3998 48H77.3332C81.7515 48 85.3332 51.5817 85.3332 56C85.3332 60.4183 81.7515 64 77.3332 64H66.6665ZM66.6665 64V80" stroke="#5375E0" stroke-width="6" stroke-linecap="round" stroke-linejoin="round"/>
<path d="M98.6665 48V80" stroke="#5375E0" stroke-width="6" stroke-linecap="round" stroke-linejoin="round"/>
</svg>
