<svg width="128" height="128" viewBox="0 0 128 128" fill="none" xmlns="http://www.w3.org/2000/svg">
<path d="M10.6667 95.9998C10.6667 87.7842 10.6667 83.6763 12.5159 80.6587C13.5506 78.9701 14.9703 77.5505 16.6588 76.5157C19.6765 74.6665 23.7843 74.6665 32 74.6665C40.2157 74.6665 44.3235 74.6665 47.3411 76.5157C49.0297 77.5505 50.4494 78.9701 51.4841 80.6587C53.3333 83.6763 53.3333 87.7842 53.3333 95.9998C53.3333 104.216 53.3333 108.323 51.4841 111.341C50.4494 113.03 49.0297 114.449 47.3411 115.484C44.3235 117.333 40.2157 117.333 32 117.333C23.7843 117.333 19.6765 117.333 16.6588 115.484C14.9703 114.449 13.5506 113.03 12.5159 111.341C10.6667 108.323 10.6667 104.216 10.6667 95.9998Z" stroke="#5375E0" stroke-width="6"/>
<path d="M74.6667 95.9998C74.6667 87.7842 74.6667 83.6763 76.5159 80.6587C77.5506 78.9701 78.9703 77.5505 80.6588 76.5157C83.6765 74.6665 87.7843 74.6665 96 74.6665C104.216 74.6665 108.323 74.6665 111.341 76.5157C113.03 77.5505 114.449 78.9701 115.484 80.6587C117.333 83.6763 117.333 87.7842 117.333 95.9998C117.333 104.216 117.333 108.323 115.484 111.341C114.449 113.03 113.03 114.449 111.341 115.484C108.323 117.333 104.216 117.333 96 117.333C87.7843 117.333 83.6765 117.333 80.6588 115.484C78.9703 114.449 77.5506 113.03 76.5159 111.341C74.6667 108.323 74.6667 104.216 74.6667 95.9998Z" stroke="#5375E0" stroke-width="6"/>
<path d="M10.6667 31.9998C10.6667 23.7842 10.6667 19.6763 12.5159 16.6587C13.5506 14.9701 14.9703 13.5505 16.6588 12.5157C19.6765 10.6665 23.7843 10.6665 32 10.6665C40.2157 10.6665 44.3235 10.6665 47.3411 12.5157C49.0297 13.5505 50.4494 14.9701 51.4841 16.6587C53.3333 19.6763 53.3333 23.7842 53.3333 31.9998C53.3333 40.2155 53.3333 44.3233 51.4841 47.341C50.4494 49.0295 49.0297 50.4492 47.3411 51.4839C44.3235 53.3332 40.2157 53.3332 32 53.3332C23.7843 53.3332 19.6765 53.3332 16.6588 51.4839C14.9703 50.4492 13.5506 49.0295 12.5159 47.341C10.6667 44.3233 10.6667 40.2155 10.6667 31.9998Z" stroke="#5375E0" stroke-width="6"/>
<path d="M74.6667 31.9998C74.6667 23.7842 74.6667 19.6763 76.5159 16.6587C77.5506 14.9701 78.9703 13.5505 80.6588 12.5157C83.6765 10.6665 87.7843 10.6665 96 10.6665C104.216 10.6665 108.323 10.6665 111.341 12.5157C113.03 13.5505 114.449 14.9701 115.484 16.6587C117.333 19.6763 117.333 23.7842 117.333 31.9998C117.333 40.2155 117.333 44.3233 115.484 47.341C114.449 49.0295 113.03 50.4492 111.341 51.4839C108.323 53.3332 104.216 53.3332 96 53.3332C87.7843 53.3332 83.6765 53.3332 80.6588 51.4839C78.9703 50.4492 77.5506 49.0295 76.5159 47.341C74.6667 44.3233 74.6667 40.2155 74.6667 31.9998Z" stroke="#5375E0" stroke-width="6"/>
</svg>
