<svg width="128" height="128" viewBox="0 0 128 128" fill="none" xmlns="http://www.w3.org/2000/svg">
<path d="M34.6666 93.3335L34.6666 77.3335M61.3333 93.3335L61.3333 45.3335M88 93.3335V72.0002" stroke="#5375E0" stroke-width="6" stroke-linecap="round"/>
<path d="M114.667 29.3335C114.667 38.1701 107.503 45.3335 98.6666 45.3335C89.8301 45.3335 82.6666 38.1701 82.6666 29.3335C82.6666 20.4969 89.8301 13.3335 98.6666 13.3335C107.503 13.3335 114.667 20.4969 114.667 29.3335Z" stroke="#5375E0" stroke-width="6"/>
<path d="M114.643 58.6668C114.643 58.6668 114.667 60.4777 114.667 64.0003C114.667 87.8848 114.667 99.8271 107.247 107.247C99.8268 114.667 87.8845 114.667 64 114.667C40.1155 114.667 28.1733 114.667 20.7533 107.247C13.3334 99.8271 13.3334 87.8848 13.3334 64.0003C13.3334 40.1158 13.3334 28.1736 20.7533 20.7536C28.1733 13.3337 40.1155 13.3337 64 13.3337L69.3334 13.3335" stroke="#5375E0" stroke-width="6" stroke-linecap="round" stroke-linejoin="round"/>
</svg>
