<svg width="128" height="128" viewBox="0 0 128 128" fill="none" xmlns="http://www.w3.org/2000/svg">
<path d="M42.6665 64H42.7144M63.9759 64H64.0238M85.2853 64H85.3332" stroke="#5375E0" stroke-width="12" stroke-linecap="round" stroke-linejoin="round"/>
<path d="M96 112C102.572 112 107.899 105.86 107.899 98.2857C107.899 86.2978 107.367 78.3278 115.591 68.8487C117.914 66.1709 117.914 61.8292 115.591 59.1513C107.367 49.6722 107.899 41.7022 107.899 29.7143C107.899 22.1401 102.572 16 96 16" stroke="#5375E0" stroke-width="6" stroke-linecap="round" stroke-linejoin="round"/>
<path d="M32 112C25.4285 112 20.1012 105.86 20.1012 98.2857C20.1012 86.2978 20.6334 78.3278 12.4092 68.8487C10.0858 66.1709 10.0858 61.8292 12.4092 59.1513C20.4531 49.8801 20.1012 41.8129 20.1012 29.7143C20.1012 22.1401 25.4285 16 32 16" stroke="#5375E0" stroke-width="6" stroke-linecap="round" stroke-linejoin="round"/>
</svg>
