<svg width="128" height="128" viewBox="0 0 128 128" fill="none" xmlns="http://www.w3.org/2000/svg">
<path d="M87.5813 37.3332C88.975 31.029 93.3953 20.29 88.2125 14.5706C84.6747 10.6665 78.0205 10.6665 64.7122 10.6665L63.2881 10.6665C49.9798 10.6665 43.3256 10.6665 39.7878 14.5706C34.605 20.29 39.0253 31.0289 40.419 37.3332" stroke="#5375E0" stroke-width="6" stroke-linecap="round" stroke-linejoin="round"/>
<path d="M96.0359 78.1475L73.5293 108.578C69.2124 114.415 67.054 117.333 63.9999 117.333C60.9458 117.333 58.7874 114.415 54.4705 108.578L31.9638 78.1475C28.3548 73.2678 26.5503 70.828 26.6723 68.2281C26.7943 65.6282 29.2048 62.9045 34.0258 57.4574L34.0258 57.4573C38.6722 52.2073 40.4187 46.7707 40.4187 37.3359L87.581 37.3335C87.581 46.7683 89.3292 52.2059 93.9748 57.4566C98.7953 62.905 101.206 65.6292 101.327 68.2288C101.449 70.8284 99.6447 73.2681 96.0359 78.1475Z" stroke="#5375E0" stroke-width="6" stroke-linecap="round" stroke-linejoin="round"/>
<path d="M72 74.6665C69.6466 76.3625 66.9143 77.3332 64 77.3332M64 77.3332C61.0857 77.3332 58.3534 76.3625 56 74.6665M64 77.3332L64 117.333" stroke="#5375E0" stroke-width="6" stroke-linecap="round"/>
</svg>
