<svg width="128" height="128" viewBox="0 0 128 128" fill="none" xmlns="http://www.w3.org/2000/svg">
<path d="M50.8958 77.1011L77.0984 50.8984" stroke="#5375E0" stroke-width="6" stroke-linecap="round"/>
<path d="M10.8359 90.1528L7.87288 90.6221L7.87288 90.6221L10.8359 90.1528ZM10.8359 85.8469L7.87288 85.3776L7.87288 85.3776L10.8359 85.8469ZM42.1528 117.164L42.6221 120.127L42.6221 120.127L42.1528 117.164ZM37.8469 117.164L38.3162 114.201L38.3162 114.201L37.8469 117.164ZM69.1637 90.1528L72.1268 90.6221L72.1268 90.6221L69.1637 90.1528ZM69.1637 85.8469L72.1268 85.3776L72.1268 85.3776L69.1637 85.8469ZM37.8469 58.8359L38.3162 61.799L38.3162 61.799L37.8469 58.8359ZM42.1528 58.8359L42.6221 55.8729L42.6221 55.8729L42.1528 58.8359ZM45.6582 63.6018C47.0125 64.5564 48.8841 64.2323 49.8387 62.8781C50.7933 61.5238 50.4692 59.6522 49.115 58.6976L45.6582 63.6018ZM69.302 78.8847C68.3475 77.5304 66.4758 77.2064 65.1216 78.161C63.7673 79.1155 63.4433 80.9872 64.3979 82.3414L69.302 78.8847ZM22.4828 105.517L24.6042 103.396C20.9078 99.6992 18.3088 97.0944 16.5224 94.8738C14.7713 92.6972 14.0334 91.1634 13.799 89.6835L10.8359 90.1528L7.87288 90.6221C8.33802 93.5589 9.77447 96.058 11.8474 98.6347C13.8849 101.167 16.7596 104.036 20.3615 107.638L22.4828 105.517ZM22.4828 70.4828L20.3615 68.3615C16.7596 71.9634 13.8849 74.8323 11.8474 77.3649C9.77447 79.9416 8.33802 82.4408 7.87288 85.3776L10.8359 85.8469L13.799 86.3162C14.0334 84.8362 14.7713 83.3025 16.5223 81.1259C18.3088 78.9053 20.9078 76.3005 24.6041 72.6042L22.4828 70.4828ZM10.8359 90.1528L13.799 89.6835C13.6223 88.568 13.6223 87.4317 13.799 86.3162L10.8359 85.8469L7.87288 85.3776C7.59771 87.1149 7.59771 88.8848 7.87288 90.6221L10.8359 90.1528ZM57.5168 105.517L55.3955 103.396C51.6992 107.092 49.0944 109.691 46.8738 111.477C44.6972 113.228 43.1634 113.966 41.6835 114.201L42.1528 117.164L42.6221 120.127C45.5589 119.662 48.058 118.225 50.6347 116.152C53.1674 114.115 56.0363 111.24 59.6382 107.638L57.5168 105.517ZM22.4828 105.517L20.3615 107.638C23.9634 111.24 26.8323 114.115 29.3649 116.152C31.9416 118.225 34.4408 119.662 37.3776 120.127L37.8469 117.164L38.3162 114.201C36.8362 113.966 35.3025 113.228 33.1259 111.477C30.9053 109.691 28.3005 107.092 24.6042 103.396L22.4828 105.517ZM42.1528 117.164L41.6835 114.201C40.568 114.377 39.4317 114.377 38.3162 114.201L37.8469 117.164L37.3776 120.127C39.1149 120.402 40.8847 120.402 42.6221 120.127L42.1528 117.164ZM57.5168 105.517L59.6382 107.638C63.24 104.036 66.1147 101.167 68.1523 98.6347C70.2252 96.058 71.6617 93.5589 72.1268 90.6221L69.1637 90.1528L66.2007 89.6835C65.9663 91.1634 65.2284 92.6972 63.4773 94.8738C61.6909 97.0944 59.0919 99.6992 55.3955 103.396L57.5168 105.517ZM69.1637 85.8469L66.2007 86.3162C66.3773 87.4317 66.3773 88.568 66.2007 89.6835L69.1637 90.1528L72.1268 90.6221C72.402 88.8848 72.402 87.1149 72.1268 85.3776L69.1637 85.8469ZM22.4828 70.4828L24.6041 72.6042C28.3005 68.9078 30.9053 66.3088 33.1259 64.5223C35.3025 62.7713 36.8362 62.0334 38.3162 61.799L37.8469 58.8359L37.3776 55.8729C34.4408 56.338 31.9416 57.7745 29.3649 59.8474C26.8323 61.8849 23.9634 64.7596 20.3615 68.3615L22.4828 70.4828ZM42.1528 58.8359L42.6221 55.8729C40.8847 55.5977 39.1149 55.5977 37.3776 55.8729L37.8469 58.8359L38.3162 61.799C39.4317 61.6223 40.568 61.6223 41.6835 61.799L42.1528 58.8359ZM47.3866 61.1497L49.115 58.6976C47.0509 57.2428 44.9762 56.2457 42.6221 55.8729L42.1528 58.8359L41.6835 61.799C42.8755 61.9878 44.0995 62.5031 45.6582 63.6018L47.3866 61.1497ZM66.85 80.6131L64.3979 82.3414C65.4966 83.9002 66.0119 85.1242 66.2007 86.3162L69.1637 85.8469L72.1268 85.3776C71.7539 83.0235 70.7569 80.9487 69.302 78.8847L66.85 80.6131Z" fill="#5375E0"/>
<path d="M58.8359 37.8469L55.8729 37.3776L55.8729 37.3776L58.8359 37.8469ZM58.8359 42.1528L55.8729 42.6221L55.8729 42.6221L58.8359 42.1528ZM90.1528 69.1637L90.6221 72.1268L90.6221 72.1268L90.1528 69.1637ZM85.8469 69.1637L86.3162 66.2007L86.3162 66.2007L85.8469 69.1637ZM117.164 37.8469L120.127 37.3776L120.127 37.3776L117.164 37.8469ZM117.164 42.1528L120.127 42.6221L120.127 42.6221L117.164 42.1528ZM90.1528 10.8359L90.6221 7.87288L90.6221 7.87288L90.1528 10.8359ZM85.8469 10.8359L86.3162 13.799L86.3162 13.799L85.8469 10.8359ZM58.6976 49.115C59.6522 50.4692 61.5238 50.7933 62.8781 49.8387C64.2323 48.8841 64.5564 47.0125 63.6018 45.6582L58.6976 49.115ZM82.3414 64.3979C80.9872 63.4433 79.1155 63.7673 78.161 65.1216C77.2064 66.4758 77.5304 68.3475 78.8847 69.302L82.3414 64.3979ZM70.4828 22.4828L68.3615 20.3615C64.7596 23.9634 61.8849 26.8323 59.8474 29.3649C57.7745 31.9416 56.338 34.4408 55.8729 37.3776L58.8359 37.8469L61.799 38.3162C62.0334 36.8362 62.7713 35.3025 64.5223 33.1259C66.3088 30.9053 68.9078 28.3005 72.6042 24.6042L70.4828 22.4828ZM58.8359 42.1528L61.799 41.6835C61.6223 40.568 61.6223 39.4317 61.799 38.3162L58.8359 37.8469L55.8729 37.3776C55.5977 39.1149 55.5977 40.8848 55.8729 42.6221L58.8359 42.1528ZM105.517 57.5168L103.396 55.3955C99.6992 59.0919 97.0944 61.6909 94.8738 63.4773C92.6972 65.2284 91.1634 65.9663 89.6835 66.2007L90.1528 69.1637L90.6221 72.1268C93.5589 71.6617 96.058 70.2252 98.6347 68.1523C101.167 66.1147 104.036 63.24 107.638 59.6382L105.517 57.5168ZM90.1528 69.1637L89.6835 66.2007C88.568 66.3773 87.4317 66.3773 86.3162 66.2007L85.8469 69.1637L85.3776 72.1268C87.1149 72.402 88.8847 72.402 90.6221 72.1268L90.1528 69.1637ZM105.517 22.4828L103.396 24.6042C107.092 28.3005 109.691 30.9053 111.477 33.1259C113.228 35.3025 113.966 36.8362 114.201 38.3162L117.164 37.8469L120.127 37.3776C119.662 34.4408 118.225 31.9416 116.152 29.3649C114.115 26.8323 111.24 23.9634 107.638 20.3615L105.517 22.4828ZM105.517 57.5168L107.638 59.6382C111.24 56.0363 114.115 53.1674 116.152 50.6347C118.225 48.058 119.662 45.5589 120.127 42.6221L117.164 42.1528L114.201 41.6835C113.966 43.1634 113.228 44.6972 111.477 46.8738C109.691 49.0944 107.092 51.6992 103.396 55.3955L105.517 57.5168ZM117.164 37.8469L114.201 38.3162C114.377 39.4317 114.377 40.568 114.201 41.6835L117.164 42.1528L120.127 42.6221C120.402 40.8847 120.402 39.1149 120.127 37.3776L117.164 37.8469ZM105.517 22.4828L107.638 20.3615C104.036 16.7597 101.167 13.8849 98.6347 11.8474C96.058 9.77447 93.5589 8.33802 90.6221 7.87288L90.1528 10.8359L89.6835 13.799C91.1634 14.0334 92.6972 14.7713 94.8738 16.5224C97.0944 18.3088 99.6992 20.9078 103.396 24.6042L105.517 22.4828ZM70.4828 22.4828L72.6042 24.6042C76.3005 20.9078 78.9053 18.3088 81.1259 16.5223C83.3025 14.7713 84.8362 14.0334 86.3162 13.799L85.8469 10.8359L85.3776 7.87288C82.4408 8.33801 79.9416 9.77447 77.3649 11.8474C74.8323 13.8849 71.9634 16.7596 68.3615 20.3615L70.4828 22.4828ZM90.1528 10.8359L90.6221 7.87288C88.8848 7.59772 87.1149 7.59771 85.3776 7.87288L85.8469 10.8359L86.3162 13.799C87.4317 13.6223 88.568 13.6223 89.6835 13.799L90.1528 10.8359ZM61.1497 47.3866L63.6018 45.6582C62.5031 44.0995 61.9878 42.8755 61.799 41.6835L58.8359 42.1528L55.8729 42.6221C56.2457 44.9762 57.2428 47.0509 58.6976 49.115L61.1497 47.3866ZM80.6131 66.85L78.8847 69.302C80.9487 70.7569 83.0235 71.7539 85.3776 72.1268L85.8469 69.1637L86.3162 66.2007C85.1242 66.0119 83.9002 65.4966 82.3414 64.3979L80.6131 66.85Z" fill="#5375E0"/>
</svg>
